<svg id="visual" viewBox="0 0 960 540" width="960" height="540" xmlns="http://www.w3.org/2000/svg" xmlns:xlink="http://www.w3.org/1999/xlink" version="1.1"><path d="M0 109L87 109L87 50L175 50L175 104L262 104L262 98L349 98L349 66L436 66L436 77L524 77L524 109L611 109L611 44L698 44L698 39L785 39L785 77L873 77L873 109L960 109L960 66L960 0L960 0L873 0L873 0L785 0L785 0L698 0L698 0L611 0L611 0L524 0L524 0L436 0L436 0L349 0L349 0L262 0L262 0L175 0L175 0L87 0L87 0L0 0Z" fill="#fa7268"></path><path d="M0 158L87 158L87 82L175 82L175 190L262 190L262 147L349 147L349 109L436 109L436 141L524 141L524 152L611 152L611 136L698 136L698 104L785 104L785 163L873 163L873 158L960 158L960 131L960 64L960 107L873 107L873 75L785 75L785 37L698 37L698 42L611 42L611 107L524 107L524 75L436 75L436 64L349 64L349 96L262 96L262 102L175 102L175 48L87 48L87 107L0 107Z" fill="#ea5e66"></path><path d="M0 298L87 298L87 298L175 298L175 390L262 390L262 374L349 374L349 309L436 309L436 217L524 217L524 244L611 244L611 352L698 352L698 228L785 228L785 363L873 363L873 266L960 266L960 239L960 129L960 156L873 156L873 161L785 161L785 102L698 102L698 134L611 134L611 150L524 150L524 139L436 139L436 107L349 107L349 145L262 145L262 188L175 188L175 80L87 80L87 156L0 156Z" fill="#d84a64"></path><path d="M0 357L87 357L87 379L175 379L175 438L262 438L262 444L349 444L349 401L436 401L436 330L524 330L524 363L611 363L611 433L698 433L698 384L785 384L785 455L873 455L873 363L960 363L960 347L960 237L960 264L873 264L873 361L785 361L785 226L698 226L698 350L611 350L611 242L524 242L524 215L436 215L436 307L349 307L349 372L262 372L262 388L175 388L175 296L87 296L87 296L0 296Z" fill="#c53762"></path><path d="M0 541L87 541L87 541L175 541L175 541L262 541L262 541L349 541L349 541L436 541L436 541L524 541L524 541L611 541L611 541L698 541L698 541L785 541L785 541L873 541L873 541L960 541L960 541L960 345L960 361L873 361L873 453L785 453L785 382L698 382L698 431L611 431L611 361L524 361L524 328L436 328L436 399L349 399L349 442L262 442L262 436L175 436L175 377L87 377L87 355L0 355Z" fill="#b0235f"></path></svg>